<svg width="18" height="19" viewBox="0 0 18 19" fill="none" xmlns="http://www.w3.org/2000/svg">
<path d="M14.2333 11.5023C13.8642 11.1186 13.4191 10.9134 12.9473 10.9134C12.4794 10.9134 12.0304 11.1148 11.6462 11.4985L10.4439 12.6952C10.345 12.642 10.2461 12.5926 10.151 12.5432C10.014 12.4748 9.88467 12.4102 9.77433 12.3419C8.64819 11.6276 7.62476 10.6969 6.64319 9.49259C6.16762 8.89234 5.84804 8.38707 5.61596 7.8742C5.92793 7.58928 6.21708 7.29295 6.49861 7.00802C6.60514 6.90165 6.71167 6.79148 6.8182 6.68511C7.61715 5.88731 7.61715 4.85398 6.8182 4.05618L5.77955 3.01905C5.66161 2.90128 5.53987 2.77971 5.42573 2.65814C5.19746 2.4226 4.95777 2.17946 4.71047 1.95152C4.34143 1.58682 3.9001 1.39307 3.43595 1.39307C2.97179 1.39307 2.52286 1.58682 2.1424 1.95152C2.1386 1.95532 2.1386 1.95532 2.13479 1.95912L0.841243 3.26219C0.35426 3.74846 0.076528 4.34111 0.0156552 5.02873C-0.0756541 6.13805 0.251537 7.17138 0.502638 7.84761C1.11898 9.50778 2.03968 11.0464 3.41312 12.6952C5.07952 14.6821 7.08452 16.2511 9.37486 17.3566C10.2499 17.7707 11.4179 18.2607 12.7229 18.3443C12.8028 18.3481 12.8865 18.3519 12.9626 18.3519C13.8414 18.3519 14.5795 18.0366 15.1578 17.4098C15.1616 17.4022 15.1692 17.3984 15.173 17.3908C15.3708 17.1514 15.5991 16.9349 15.8388 16.7031C16.0024 16.5474 16.1698 16.384 16.3334 16.2131C16.71 15.8218 16.9079 15.3659 16.9079 14.8986C16.9079 14.4275 16.7062 13.9754 16.322 13.5955L14.2333 11.5023ZM15.5953 15.5026C15.5915 15.5026 15.5915 15.5064 15.5953 15.5026C15.4469 15.6622 15.2947 15.8066 15.1311 15.9661C14.8838 16.2017 14.6327 16.4486 14.3969 16.7259C14.0126 17.1362 13.5599 17.33 12.9664 17.33C12.9093 17.33 12.8484 17.33 12.7913 17.3262C11.6614 17.254 10.6113 16.8133 9.82379 16.4372C7.67042 15.3963 5.77955 13.9185 4.20827 12.0455C2.91092 10.4841 2.04348 9.0405 1.46899 7.4905C1.11517 6.54454 0.985816 5.80753 1.04288 5.11231C1.08093 4.66783 1.25214 4.29932 1.56791 3.984L2.86527 2.68853C3.05169 2.51378 3.24953 2.4188 3.44356 2.4188C3.68324 2.4188 3.87728 2.56317 3.99902 2.68473C4.00283 2.68853 4.00663 2.69233 4.01044 2.69613C4.24251 2.91268 4.46318 3.13682 4.69526 3.37616C4.8132 3.49773 4.93494 3.6193 5.05669 3.74466L6.09533 4.7818C6.49861 5.18449 6.49861 5.5568 6.09533 5.95949C5.985 6.06967 5.87847 6.17984 5.76814 6.28621C5.44856 6.61293 5.14419 6.91685 4.8132 7.21317C4.80559 7.22077 4.79798 7.22457 4.79417 7.23217C4.46698 7.55888 4.52786 7.878 4.59634 8.09455C4.60014 8.10594 4.60395 8.11734 4.60775 8.12874C4.87787 8.78217 5.25833 9.39761 5.83662 10.1308L5.84043 10.1346C6.89048 11.4263 7.99761 12.433 9.21887 13.2042C9.37486 13.303 9.53465 13.3828 9.68683 13.4588C9.82379 13.5272 9.95315 13.5917 10.0635 13.6601C10.0787 13.6677 10.0939 13.6791 10.1091 13.6867C10.2385 13.7513 10.3602 13.7817 10.4858 13.7817C10.8016 13.7817 10.9994 13.5841 11.0641 13.5196L12.3652 12.2203C12.4946 12.0911 12.7 11.9354 12.9397 11.9354C13.1756 11.9354 13.3696 12.0835 13.4876 12.2127C13.4914 12.2165 13.4914 12.2165 13.4952 12.2203L15.5915 14.3136C15.9834 14.7011 15.9834 15.0999 15.5953 15.5026Z" fill="#00B2FF"/>
<path d="M9.72843 4.63362C10.7252 4.80077 11.6307 5.27185 12.3536 5.99367C13.0764 6.71548 13.5444 7.61965 13.7156 8.615C13.7575 8.86573 13.9743 9.04049 14.2216 9.04049C14.252 9.04049 14.2787 9.03669 14.3091 9.03289C14.5907 8.9873 14.7771 8.72137 14.7314 8.44024C14.526 7.23595 13.9553 6.13803 13.0841 5.26805C12.2128 4.39808 11.1133 3.82822 9.90725 3.62308C9.62571 3.57749 9.3632 3.76364 9.31374 4.04097C9.26428 4.3183 9.4469 4.58803 9.72843 4.63362Z" fill="#00B2FF"/>
<path d="M17.9921 8.29211C17.6535 6.30902 16.7176 4.50448 15.2795 3.06845C13.8414 1.63242 12.0342 0.697861 10.0482 0.359748C9.77051 0.31036 9.50799 0.500312 9.45853 0.77764C9.41288 1.05877 9.5993 1.3209 9.88084 1.37029C11.6538 1.67041 13.2707 2.51 14.5566 3.79027C15.8426 5.07434 16.6796 6.68892 16.9801 8.45927C17.022 8.71 17.2388 8.88476 17.4861 8.88476C17.5166 8.88476 17.5432 8.88096 17.5736 8.87716C17.8514 8.83537 18.0416 8.56944 17.9921 8.29211Z" fill="#00B2FF"/>
</svg>
