<svg width="19" height="15" viewBox="0 0 19 15" fill="none" xmlns="http://www.w3.org/2000/svg">
<path d="M16.6805 0.351929H2.3234C1.0418 0.351929 0 1.36063 0 2.60152V12.1023C0 13.3432 1.0418 14.3519 2.3234 14.3519H16.6766C17.9582 14.3519 19 13.3432 19 12.1023V2.60533C19.0039 1.36444 17.9621 0.351929 16.6805 0.351929ZM17.9425 12.1023C17.9425 12.7761 17.3764 13.3242 16.6805 13.3242H2.3234C1.62756 13.3242 1.06145 12.7761 1.06145 12.1023V2.60533C1.06145 1.93159 1.62756 1.38347 2.3234 1.38347H16.6766C17.3724 1.38347 17.9385 1.93159 17.9385 2.60533V12.1023H17.9425Z" fill="#00B2FF"/>
<path d="M11.9827 7.23388L16.6295 3.19908C16.8457 3.00876 16.8654 2.68521 16.6688 2.47205C16.4723 2.2627 16.1381 2.24367 15.9179 2.43399L9.50992 8.00278L8.25977 6.92175C8.25584 6.91795 8.2519 6.91414 8.2519 6.91033C8.22439 6.88369 8.19687 6.86085 8.16542 6.83801L3.07831 2.43018C2.85816 2.23986 2.524 2.25889 2.32743 2.47205C2.13087 2.68521 2.15052 3.00876 2.37068 3.19908L7.07251 7.26814L2.39033 11.5123C2.17804 11.7064 2.16625 12.03 2.36674 12.2393C2.47289 12.3459 2.61442 12.403 2.75594 12.403C2.88568 12.403 3.01541 12.3573 3.11762 12.266L7.87057 7.9609L9.16004 9.07619C9.26225 9.16373 9.38805 9.2056 9.51385 9.2056C9.63965 9.2056 9.76939 9.15993 9.86767 9.07238L11.1925 7.92284L15.9179 12.2698C16.0202 12.3649 16.1538 12.4106 16.2836 12.4106C16.4251 12.4106 16.5627 12.3573 16.6688 12.2507C16.8693 12.0452 16.8615 11.7178 16.6492 11.5237L11.9827 7.23388Z" fill="#00B2FF"/>
</svg>
